<svg width="972" height="140" viewBox="0 0 972 140" fill="none" xmlns="http://www.w3.org/2000/svg">
<g clip-path="url(#clip0_268_3873)">
<rect width="972" height="140" rx="8" fill="#C2C2C2"/>
<path d="M0 572V0H972" stroke="white" stroke-width="16"/>
<g clip-path="url(#clip1_268_3873)">
<rect width="100" height="100" transform="translate(20 20)" fill="#8B8B8B"/>
<g clip-path="url(#clip2_268_3873)">
<path d="M20 20H160V120H20V20Z" fill="white"/>
<path d="M20 20H160V27.6901H20V20ZM20 35.3801H160V43.0702H20V35.3801ZM20 50.7602H160V58.4503H20V50.7602ZM20 66.1403H160V73.8304H20V66.1403ZM20 81.5497H160V89.2398H20V81.5497ZM20 96.9298H160V104.62H20V96.9298ZM20 112.31H160V120H20V112.31Z" fill="#D80027"/>
<path d="M20 20H90V73.8304H20V20Z" fill="#2E52B2"/>
<path d="M33.0451 60.614L31.9535 56.8713L30.7527 60.614H27.1504L30.0705 62.8654L28.9789 66.6081L31.9535 64.2982L34.8463 66.6081L33.7274 62.8654L36.702 60.614H33.0451ZM48.4096 60.614L47.2907 56.8713L46.1445 60.614H42.5422L45.4623 62.8654L44.3707 66.6081L47.2907 64.2982L50.2381 66.6081L49.1465 62.8654L52.0666 60.614H48.4096ZM63.8288 60.614L62.6553 56.8713L61.5636 60.614H57.8794L60.8814 62.8654L59.7352 66.6081L62.6553 64.2982L65.6572 66.6081L64.511 62.8654L67.4311 60.614H63.8288ZM79.166 60.614L78.0744 56.8713L76.9282 60.614H73.2985L76.2459 62.8654L75.1543 66.6081L78.0744 64.2982L81.0217 66.6081L79.8482 62.8654L82.8502 60.614H79.166ZM47.2907 42.0175L46.1445 45.7602H42.5422L45.4623 48.0701L44.3707 51.7543L47.2907 49.4736L50.2381 51.7543L49.1465 48.0701L52.0666 45.7602H48.4096L47.2907 42.0175ZM31.9535 42.0175L30.7527 45.7602H27.1504L30.0705 48.0701L28.9789 51.7543L31.9535 49.4736L34.8463 51.7543L33.7274 48.0701L36.702 45.7602H33.0451L31.9535 42.0175ZM62.6553 42.0175L61.5636 45.7602H57.8794L60.8814 48.0701L59.7352 51.7543L62.6553 49.4736L65.6572 51.7543L64.511 48.0701L67.4311 45.7602H63.8288L62.6553 42.0175ZM78.0744 42.0175L76.9282 45.7602H73.2985L76.2459 48.0701L75.1543 51.7543L78.0744 49.4736L81.0217 51.7543L79.8482 48.0701L82.8502 45.7602H79.166L78.0744 42.0175ZM31.9535 27.2222L30.7527 30.9064H27.1504L30.0705 33.2163L28.9789 36.9298L31.9535 34.6198L34.8463 36.9298L33.7274 33.2163L36.702 30.9064H33.0451L31.9535 27.2222ZM47.2907 27.2222L46.1445 30.9064H42.5422L45.4623 33.2163L44.3707 36.9298L47.2907 34.6198L50.2381 36.9298L49.1465 33.2163L52.0666 30.9064H48.4096L47.2907 27.2222ZM62.6553 27.2222L61.5636 30.9064H57.8794L60.8814 33.2163L59.7352 36.9298L62.6553 34.6198L65.6572 36.9298L64.511 33.2163L67.4311 30.9064H63.8288L62.6553 27.2222ZM78.0744 27.2222L76.9282 30.9064H73.2985L76.2459 33.2163L75.1543 36.9298L78.0744 34.6198L81.0217 36.9298L79.8482 33.2163L82.8502 30.9064H79.166L78.0744 27.2222Z" fill="white"/>
</g>
</g>
<path d="M120 18C120 56.5484 120 81.4516 120 120L18 120" stroke="white" stroke-width="6"/>
<path d="M20 121L20 20L120 20" stroke="#414141" stroke-width="6"/>
<g clip-path="url(#clip3_268_3873)">
<rect width="100" height="100" transform="translate(124 20)" fill="#8B8B8B"/>
<g clip-path="url(#clip4_268_3873)">
<path d="M99 19.9993H249V120H99V19.9993Z" fill="#0052B4"/>
<path d="M99 19.9993H249V53.3318H99V19.9993Z" fill="#D80027"/>
<path d="M99 86.6648H249V119.997H99V86.6648Z" fill="white"/>
<path d="M136.93 48.2598V73.202C136.93 87.3902 155.465 91.7372 155.465 91.7372C155.465 91.7372 174 87.3896 174 73.202V48.2598H136.93V48.2598Z" fill="#D80027"/>
<path d="M144.596 52.6077H166.334V43.9121L161.986 46.0859L155.464 39.5645L148.943 46.0859L144.596 43.9121V52.6077ZM169.652 76.6746L155.522 62.5444L141.392 76.6746L146.003 81.2859L155.522 71.7673L165.04 81.2859L169.652 76.6746Z" fill="#FFDA44"/>
<path d="M169.652 63.4768H163.059C163.443 62.817 163.645 62.0671 163.645 61.3036C163.645 58.9024 161.698 56.9559 159.298 56.9559C157.638 56.9559 156.198 57.8852 155.465 59.2516C154.732 57.8855 153.291 56.9559 151.632 56.9559C149.231 56.9559 147.284 58.9024 147.284 61.3036C147.284 62.0964 147.5 62.8373 147.87 63.4768H141.392C141.392 65.878 143.483 67.8245 145.884 67.8245H145.739C145.739 70.2257 147.686 72.1722 150.087 72.1722C150.087 74.2982 151.614 76.0645 153.63 76.4425L150.204 84.1771C151.893 84.8641 153.698 85.2167 155.521 85.2154C157.344 85.2166 159.15 84.864 160.838 84.1771L157.412 76.4425C159.429 76.0645 160.955 74.2982 160.955 72.1722C163.357 72.1722 165.303 70.2257 165.303 67.8245H165.158C167.56 67.8245 169.652 65.878 169.652 63.4768V63.4768Z" fill="white"/>
</g>
</g>
<path d="M224 18C224 56.5484 224 81.4516 224 120L122 120" stroke="white" stroke-width="6"/>
<path d="M124 121L124 20L224 20" stroke="#414141" stroke-width="6"/>
<g clip-path="url(#clip5_268_3873)">
<rect width="100" height="100" transform="translate(228 20)" fill="#8B8B8B"/>
<g clip-path="url(#clip6_268_3873)">
<path d="M208 23H349V118H208V23Z" fill="#ED2024"/>
<path d="M258.917 42.3165V67.6498L270.04 71.6082L262.207 79.3665L265.967 84.1165L274.27 75.4082L276.15 79.0498L271.45 86.8082L277.09 95.6748L274.27 99.7915L278.657 105.492L282.887 99.6332L280.537 95.5165L285.237 86.3332L281.007 79.0498L282.887 75.4082L291.034 84.1165L294.95 79.5248L286.804 71.4498L298.084 67.3332V42.3165L289.937 45.3248L289.78 51.3415L284.61 51.8165V47.6998L287.274 44.0582L296.047 40.5748L292.444 39.9415L294.637 38.0415L296.047 38.6748L294.794 36.4582L292.6 37.2498L291.034 35.5082L282.417 37.2498L284.61 38.9915L278.657 46.7498L272.704 39.1498L274.74 37.4082L266.907 35.5082L264.714 37.2498L262.364 36.6165L261.11 38.8332L262.52 37.8832L265.027 39.6248L261.424 40.4165L270.04 43.5832L272.547 47.2248V51.8165L267.377 51.3415V45.6415L258.917 42.3165Z" fill="#212121"/>
<path d="M249.047 62.5833H259.074V66.5416H249.047V62.5833ZM249.047 56.0916H259.074V60.3666H249.047V56.0916ZM249.047 49.4416H259.074V53.5583H249.047V49.4416ZM249.047 43.1083H259.074V47.0666H249.047V43.1083Z" fill="#212121"/>
<path d="M297.927 62.5833H307.953V66.5416H297.927V62.5833ZM297.927 56.0916H307.953V60.3666H297.927V56.0916ZM297.927 49.4416H307.953V53.5583H297.927V49.4416ZM297.927 43.1083H307.953V47.0666H297.927V43.1083Z" fill="#212121"/>
<path d="M291.66 80.1584H301.687V83.1668H291.66V80.1584ZM255.313 80.1584H265.34V83.1668H255.313V80.1584Z" fill="#212121"/>
</g>
</g>
<path d="M328 18C328 56.5484 328 81.4516 328 120L226 120" stroke="white" stroke-width="6"/>
<path d="M228 121L228 20L328 20" stroke="#414141" stroke-width="6"/>
<g clip-path="url(#clip7_268_3873)">
<rect width="100" height="100" transform="translate(332 20)" fill="#8B8B8B"/>
<g clip-path="url(#clip8_268_3873)">
<path d="M309 21.9994H455V119.001H309V21.9994Z" fill="#D80027"/>
<path d="M309 21.9994H455V54.332H309V21.9994Z" fill="black"/>
<path d="M309 86.6649H455V118.997H309V86.6649Z" fill="#FFDA44"/>
</g>
</g>
<path d="M432 18C432 56.5484 432 81.4516 432 120L330 120" stroke="white" stroke-width="6"/>
<path d="M332 121L332 20L432 20" stroke="#414141" stroke-width="6"/>
<rect width="100" height="100" transform="translate(436 20)" fill="#8B8B8B"/>
<path d="M536 18C536 56.5484 536 81.4516 536 120L434 120" stroke="white" stroke-width="6"/>
<path d="M436 121L436 20L536 20" stroke="#414141" stroke-width="6"/>
<rect width="100" height="100" transform="translate(540 20)" fill="#8B8B8B"/>
<path d="M640 18C640 56.5484 640 81.4516 640 120L538 120" stroke="white" stroke-width="6"/>
<path d="M540 121L540 20L640 20" stroke="#414141" stroke-width="6"/>
<rect width="100" height="100" transform="translate(644 20)" fill="#8B8B8B"/>
<path d="M744 18C744 56.5484 744 81.4516 744 120L642 120" stroke="white" stroke-width="6"/>
<path d="M644 121L644 20L744 20" stroke="#414141" stroke-width="6"/>
<rect width="100" height="100" transform="translate(748 20)" fill="#8B8B8B"/>
<path d="M848 18C848 56.5484 848 81.4516 848 120L746 120" stroke="white" stroke-width="6"/>
<path d="M748 121L748 20L848 20" stroke="#414141" stroke-width="6"/>
<rect width="100" height="100" transform="translate(852 20)" fill="#8B8B8B"/>
<path d="M952 18C952 56.5484 952 81.4516 952 120L850 120" stroke="white" stroke-width="6"/>
<path d="M852 121L852 20L952 20" stroke="#414141" stroke-width="6"/>
</g>
<defs>
<clipPath id="clip0_268_3873">
<rect width="972" height="140" rx="8" fill="white"/>
</clipPath>
<clipPath id="clip1_268_3873">
<rect width="100" height="100" fill="white" transform="translate(20 20)"/>
</clipPath>
<clipPath id="clip2_268_3873">
<rect x="20" y="20" width="140" height="100" rx="8" fill="white"/>
</clipPath>
<clipPath id="clip3_268_3873">
<rect width="100" height="100" fill="white" transform="translate(124 20)"/>
</clipPath>
<clipPath id="clip4_268_3873">
<rect x="99" y="20" width="150" height="100" rx="8" fill="white"/>
</clipPath>
<clipPath id="clip5_268_3873">
<rect width="100" height="100" fill="white" transform="translate(228 20)"/>
</clipPath>
<clipPath id="clip6_268_3873">
<rect x="208" y="23" width="141" height="95" rx="8" fill="white"/>
</clipPath>
<clipPath id="clip7_268_3873">
<rect width="100" height="100" fill="white" transform="translate(332 20)"/>
</clipPath>
<clipPath id="clip8_268_3873">
<rect x="309" y="22" width="146" height="97" rx="8" fill="white"/>
</clipPath>
</defs>
</svg>
