<svg width="972" height="140" viewBox="0 0 972 140" fill="none" xmlns="http://www.w3.org/2000/svg">
<g clip-path="url(#clip0_290_25)">
<rect width="972" height="140" rx="8" fill="#C2C2C2"/>
<path d="M0 572V0H972" stroke="white" stroke-width="16"/>
<path d="M972 2.77162e-06V140L7.15256e-07 140" stroke="#414141" stroke-width="16"/>
<g clip-path="url(#clip1_290_25)">
<rect width="100" height="100" transform="translate(20 20)" fill="#8B8B8B"/>
<g clip-path="url(#clip2_290_25)">
<path d="M20 20H160V120H20V20Z" fill="white"/>
<path d="M20 20H160V27.6901H20V20ZM20 35.3801H160V43.0702H20V35.3801ZM20 50.7602H160V58.4503H20V50.7602ZM20 66.1404H160V73.8304H20V66.1404ZM20 81.5497H160V89.2398H20V81.5497ZM20 96.9298H160V104.62H20V96.9298ZM20 112.31H160V120H20V112.31Z" fill="#D80027"/>
<path d="M20 20H90V73.8304H20V20Z" fill="#2E52B2"/>
<path d="M33.0451 60.614L31.9535 56.8713L30.7527 60.614H27.1504L30.0705 62.8654L28.9789 66.6081L31.9535 64.2982L34.8463 66.6081L33.7274 62.8654L36.702 60.614H33.0451ZM48.4096 60.614L47.2907 56.8713L46.1445 60.614H42.5422L45.4623 62.8654L44.3707 66.6081L47.2907 64.2982L50.2381 66.6081L49.1465 62.8654L52.0666 60.614H48.4096ZM63.8288 60.614L62.6553 56.8713L61.5636 60.614H57.8794L60.8814 62.8654L59.7352 66.6081L62.6553 64.2982L65.6572 66.6081L64.511 62.8654L67.4311 60.614H63.8288ZM79.166 60.614L78.0744 56.8713L76.9282 60.614H73.2985L76.2459 62.8654L75.1543 66.6081L78.0744 64.2982L81.0217 66.6081L79.8482 62.8654L82.8502 60.614H79.166ZM47.2907 42.0175L46.1445 45.7602H42.5422L45.4623 48.0701L44.3707 51.7543L47.2907 49.4736L50.2381 51.7543L49.1465 48.0701L52.0666 45.7602H48.4096L47.2907 42.0175ZM31.9535 42.0175L30.7527 45.7602H27.1504L30.0705 48.0701L28.9789 51.7543L31.9535 49.4736L34.8463 51.7543L33.7274 48.0701L36.702 45.7602H33.0451L31.9535 42.0175ZM62.6553 42.0175L61.5636 45.7602H57.8794L60.8814 48.0701L59.7352 51.7543L62.6553 49.4736L65.6572 51.7543L64.511 48.0701L67.4311 45.7602H63.8288L62.6553 42.0175ZM78.0744 42.0175L76.9282 45.7602H73.2985L76.2459 48.0701L75.1543 51.7543L78.0744 49.4736L81.0217 51.7543L79.8482 48.0701L82.8502 45.7602H79.166L78.0744 42.0175ZM31.9535 27.2222L30.7527 30.9064H27.1504L30.0705 33.2163L28.9789 36.9298L31.9535 34.6198L34.8463 36.9298L33.7274 33.2163L36.702 30.9064H33.0451L31.9535 27.2222ZM47.2907 27.2222L46.1445 30.9064H42.5422L45.4623 33.2163L44.3707 36.9298L47.2907 34.6198L50.2381 36.9298L49.1465 33.2163L52.0666 30.9064H48.4096L47.2907 27.2222ZM62.6553 27.2222L61.5636 30.9064H57.8794L60.8814 33.2163L59.7352 36.9298L62.6553 34.6198L65.6572 36.9298L64.511 33.2163L67.4311 30.9064H63.8288L62.6553 27.2222ZM78.0744 27.2222L76.9282 30.9064H73.2985L76.2459 33.2163L75.1543 36.9298L78.0744 34.6198L81.0217 36.9298L79.8482 33.2163L82.8502 30.9064H79.166L78.0744 27.2222Z" fill="white"/>
</g>
</g>
<path d="M120 18C120 56.5484 120 81.4516 120 120L18 120" stroke="white" stroke-width="6"/>
<path d="M20 121L20 20L122 20" stroke="#414141" stroke-width="6"/>
<g clip-path="url(#clip3_290_25)">
<rect width="100" height="100" transform="translate(124 20)" fill="#8B8B8B"/>
<g clip-path="url(#clip4_290_25)">
<path d="M103 22H244V117H103V22Z" fill="#ED2024"/>
<path d="M153.917 41.3165V66.6498L165.04 70.6082L157.207 78.3665L160.967 83.1165L169.27 74.4082L171.15 78.0498L166.45 85.8082L172.09 94.6748L169.27 98.7915L173.657 104.492L177.887 98.6332L175.537 94.5165L180.237 85.3332L176.007 78.0498L177.887 74.4082L186.034 83.1165L189.95 78.5248L181.804 70.4498L193.084 66.3332V41.3165L184.937 44.3248L184.78 50.3415L179.61 50.8165V46.6998L182.274 43.0582L191.047 39.5748L187.444 38.9415L189.637 37.0415L191.047 37.6748L189.794 35.4582L187.6 36.2498L186.034 34.5082L177.417 36.2498L179.61 37.9915L173.657 45.7498L167.704 38.1498L169.74 36.4082L161.907 34.5082L159.714 36.2498L157.364 35.6165L156.11 37.8332L157.52 36.8832L160.027 38.6248L156.424 39.4165L165.04 42.5832L167.547 46.2248V50.8165L162.377 50.3415V44.6415L153.917 41.3165Z" fill="#212121"/>
<path d="M144.047 61.5833H154.074V65.5416H144.047V61.5833ZM144.047 55.0916H154.074V59.3666H144.047V55.0916ZM144.047 48.4416H154.074V52.5583H144.047V48.4416ZM144.047 42.1083H154.074V46.0666H144.047V42.1083Z" fill="#212121"/>
<path d="M192.927 61.5833H202.953V65.5416H192.927V61.5833ZM192.927 55.0916H202.953V59.3666H192.927V55.0916ZM192.927 48.4416H202.953V52.5583H192.927V48.4416ZM192.927 42.1083H202.953V46.0666H192.927V42.1083Z" fill="#212121"/>
<path d="M186.66 79.1584H196.687V82.1668H186.66V79.1584ZM150.313 79.1584H160.34V82.1668H150.313V79.1584Z" fill="#212121"/>
</g>
</g>
<path d="M224 18C224 56.5484 224 81.4516 224 120L122 120" stroke="white" stroke-width="6"/>
<path d="M124 121L124 20L227 20" stroke="#414141" stroke-width="6"/>
<g clip-path="url(#clip5_290_25)">
<rect width="100" height="100" transform="translate(228 20)" fill="#8B8B8B"/>
<g clip-path="url(#clip6_290_25)">
<path d="M199 17H358V123H199V17Z" fill="white"/>
<path d="M199 17H358V52.3333H199V17Z" fill="#D80027"/>
<path d="M199 87.6666H358V123H199V87.6666Z" fill="#0052B4"/>
<path d="M292.374 54.418V42.8017L296.994 39L301.667 42.8017V54.418H292.374ZM264.495 54.418V42.8017L259.928 39L255.202 42.8017V54.418H264.495ZM273.788 54.418V42.8017L278.435 39L283.081 42.8017V54.418H273.788Z" fill="#338AF3"/>
<path d="M292.374 54.418H283.081V42.8017L287.701 39L292.374 42.8017V54.418ZM273.788 54.418H264.495V42.8017L269.115 39L273.788 42.8017V54.418Z" fill="#0052B4"/>
<path d="M255 54.0153V81.2272C255 87.7164 258.845 93.5647 264.453 97.0897C270.141 100.668 275.696 101.015 278.5 101.015C281.304 101.015 286.885 100.561 292.547 97.063C298.155 93.5914 302 87.6897 302 81.2272V54.0153H255Z" fill="white"/>
<path fill-rule="evenodd" clip-rule="evenodd" d="M255 54.0153H302V81.2062C302 87.6861 298.145 93.5938 292.537 97.0654C286.879 100.562 281.301 101.015 278.5 101.015C275.7 101.015 270.148 100.669 264.462 97.0915C258.855 93.5671 255 87.7131 255 81.2062V54.0153ZM255.266 54.2808V81.2062C255.266 87.6044 259.058 93.3809 264.603 96.8667C270.229 100.406 275.723 100.75 278.5 100.75C281.275 100.75 286.797 100.3 292.397 96.8397C297.942 93.4074 301.734 87.5783 301.734 81.2062V54.2808H255.266Z" fill="#D80027"/>
<path d="M255.202 54.418H264.495V63.711H255.202V54.418ZM273.788 54.418H283.081V63.711H273.788V54.418ZM292.374 54.418H301.667V63.711H292.374V54.418ZM264.495 63.711H273.788V73.0041H264.495V63.711ZM283.081 63.711H292.374V73.0041H283.081V63.711ZM255.202 73.0041H264.495V82.2971H255.202V73.0041ZM264.495 82.2971H273.788V91.5901H264.495V82.2971ZM273.788 73.0041H283.081V82.2971H273.788V73.0041ZM292.374 73.0041H301.667V82.2971H292.374V73.0041ZM283.081 82.2971H292.374V91.5901H283.081V82.2971ZM292.374 96.9495C294.645 95.5238 296.651 93.7022 298.182 91.5901H292.374V96.9495ZM258.687 91.5901C260.218 93.7022 262.198 95.5238 264.495 96.9759V91.5901H258.687ZM273.788 91.5901V100.487C275.689 100.804 277.3 100.883 278.435 100.883C279.57 100.883 281.18 100.804 283.081 100.461V91.5901H273.788V91.5901Z" fill="#D80027"/>
</g>
</g>
<path d="M328 18C328 56.5484 328 81.4516 328 120L226 120" stroke="white" stroke-width="6"/>
<path d="M228 121L228 20L330 20" stroke="#414141" stroke-width="6"/>
<g clip-path="url(#clip7_290_25)">
<rect width="100" height="100" transform="translate(332 20)" fill="#8B8B8B"/>
<g clip-path="url(#clip8_290_25)">
<path d="M309 21.9994H455V119.001H309V21.9994Z" fill="#D80027"/>
<path d="M309 21.9994H455V54.332H309V21.9994Z" fill="black"/>
<path d="M309 86.6649H455V118.997H309V86.6649Z" fill="#FFDA44"/>
</g>
</g>
<path d="M432 18C432 56.5484 432 81.4516 432 120L330 120" stroke="white" stroke-width="6"/>
<path d="M332 121L332 20L434 20" stroke="#414141" stroke-width="6"/>
<rect width="100" height="100" transform="translate(436 20)" fill="#8B8B8B"/>
<path d="M536 18C536 56.5484 536 81.4516 536 120L434 120" stroke="white" stroke-width="6"/>
<path d="M436 121L436 20L538 20" stroke="#414141" stroke-width="6"/>
<rect width="100" height="100" transform="translate(540 20)" fill="#8B8B8B"/>
<path d="M640 18C640 56.5484 640 81.4516 640 120L538 120" stroke="white" stroke-width="6"/>
<path d="M540 121L540 20L643 20" stroke="#414141" stroke-width="6"/>
<rect width="100" height="100" transform="translate(644 20)" fill="#8B8B8B"/>
<path d="M744 18C744 56.5484 744 81.4516 744 120L642 120" stroke="white" stroke-width="6"/>
<path d="M644 121L644 20L746 20" stroke="#414141" stroke-width="6"/>
<rect width="100" height="100" transform="translate(748 20)" fill="#8B8B8B"/>
<path d="M848 18C848 56.5484 848 81.4516 848 120L746 120" stroke="white" stroke-width="6"/>
<path d="M748 121L748 20L849 20" stroke="#414141" stroke-width="6"/>
<rect width="100" height="100" transform="translate(852 20)" fill="#8B8B8B"/>
<path d="M952 18C952 56.5484 952 81.4516 952 120L850 120" stroke="white" stroke-width="6"/>
<path d="M852 121L852 20L955 20" stroke="#414141" stroke-width="6"/>
</g>
<defs>
<clipPath id="clip0_290_25">
<rect width="972" height="140" rx="8" fill="white"/>
</clipPath>
<clipPath id="clip1_290_25">
<rect width="100" height="100" fill="white" transform="translate(20 20)"/>
</clipPath>
<clipPath id="clip2_290_25">
<rect x="20" y="20" width="140" height="100" rx="8" fill="white"/>
</clipPath>
<clipPath id="clip3_290_25">
<rect width="100" height="100" fill="white" transform="translate(124 20)"/>
</clipPath>
<clipPath id="clip4_290_25">
<rect x="103" y="22" width="141" height="95" rx="8" fill="white"/>
</clipPath>
<clipPath id="clip5_290_25">
<rect width="100" height="100" fill="white" transform="translate(228 20)"/>
</clipPath>
<clipPath id="clip6_290_25">
<rect width="159" height="106" fill="white" transform="translate(199 17)"/>
</clipPath>
<clipPath id="clip7_290_25">
<rect width="100" height="100" fill="white" transform="translate(332 20)"/>
</clipPath>
<clipPath id="clip8_290_25">
<rect x="309" y="22" width="146" height="97" rx="8" fill="white"/>
</clipPath>
</defs>
</svg>
