<svg width="150" height="151" viewBox="0 0 150 151" fill="none" xmlns="http://www.w3.org/2000/svg">
<path d="M37.5 38H37.5625M37.5 113H37.5625M25 13H125C131.904 13 137.5 18.5964 137.5 25.5V50.5C137.5 57.4036 131.904 63 125 63H25C18.0964 63 12.5 57.4036 12.5 50.5V25.5C12.5 18.5964 18.0964 13 25 13ZM25 88H125C131.904 88 137.5 93.5964 137.5 100.5V125.5C137.5 132.404 131.904 138 125 138H25C18.0964 138 12.5 132.404 12.5 125.5V100.5C12.5 93.5964 18.0964 88 25 88Z" stroke="#D5D5D5" stroke-width="8" stroke-linecap="round" stroke-linejoin="round"/>
</svg>
