<svg width="150" height="150" viewBox="0 0 150 150" fill="none" xmlns="http://www.w3.org/2000/svg">
<path d="M131.25 106.25L117.775 94.5748C117.33 94.1525 116.77 93.8707 116.165 93.7646C115.561 93.6584 114.938 93.7326 114.376 93.9779C113.813 94.2232 113.335 94.6288 113.002 95.1439C112.668 95.6591 112.494 96.2611 112.5 96.8748V99.9998C112.5 101.657 111.842 103.247 110.669 104.419C109.497 105.591 107.908 106.25 106.25 106.25H93.75C92.0924 106.25 90.5027 105.591 89.3306 104.419C88.1585 103.247 87.5 101.657 87.5 99.9998C87.5 84.0935 62.5562 75.1873 34.375 74.9998C30.231 74.9998 26.2567 76.646 23.3265 79.5763C20.3962 82.5065 18.75 86.4808 18.75 90.6248C18.75 94.7688 20.3962 98.7431 23.3265 101.673C26.2567 104.604 30.231 106.25 34.375 106.25C60.3312 106.25 64.0313 35.656 70.05 21.8748C71.0667 19.5485 72.635 17.505 74.6191 15.9211C76.6032 14.3372 78.9433 13.2606 81.4371 12.7845C83.9308 12.3084 86.503 12.4472 88.931 13.1887C91.3591 13.9302 93.5699 15.2522 95.3722 17.0403C97.1744 18.8284 98.5138 21.0287 99.2745 23.4508C100.035 25.873 100.194 28.444 99.7377 30.9414C99.2813 33.4388 98.2232 35.7874 96.655 37.7839C95.0868 39.7804 93.0557 41.3647 90.7375 42.3998M18.75 131.25H131.25" stroke="#D5D5D5" stroke-width="8" stroke-linecap="round" stroke-linejoin="round"/>
</svg>
