<svg width="150" height="150" viewBox="0 0 150 150" fill="none" xmlns="http://www.w3.org/2000/svg">
<path d="M121.594 117.473L96.3656 75.0045L121.594 32.517L133.772 74.9951L121.589 117.464L121.594 117.473ZM65.3719 113.395L33.6469 81.9092H84.0797L109.298 124.383L65.3672 113.404L65.3719 113.395ZM65.3719 36.6045L109.298 25.6264L84.0844 68.0998H33.6422L65.3719 36.6045ZM145.294 60.5482L129.909 4.70605L72.4828 19.6732L63.9891 34.2607L46.7391 34.1342L4.71094 75.0045L46.7438 115.879L63.9844 115.744L72.5016 130.331L129.905 145.294L145.294 89.4748L136.556 75.0045L145.294 60.5482Z" fill="#D5D5D5"/>
</svg>
